<mxfile host="app.diagrams.net" modified="2021-11-22T03:13:06.200Z" agent="5.0 (X11; Linux x86_64) AppleWebKit/537.36 (KHTML, like Gecko) Chrome/92.0.4515.134 Safari/537.36" etag="wfm4qSiwJRtzYparIpCb" version="15.8.3" type="github">
  <diagram id="GBfDYV9hPm4Kp2CvefZu" name="Page-1">
    <mxGraphModel dx="2262" dy="1848" grid="1" gridSize="10" guides="1" tooltips="1" connect="1" arrows="1" fold="1" page="1" pageScale="1" pageWidth="850" pageHeight="1100" math="0" shadow="0">
      <root>
        <mxCell id="0" />
        <mxCell id="1" parent="0" />
        <mxCell id="FNROunYRmoEd2MTFt1e7-44" value="" style="rounded=0;whiteSpace=wrap;html=1;fontFamily=Verdana;fontSize=50;strokeColor=none;" parent="1" vertex="1">
          <mxGeometry x="40" y="490" width="1000" height="410" as="geometry" />
        </mxCell>
        <mxCell id="FNROunYRmoEd2MTFt1e7-5" value="" style="rounded=0;whiteSpace=wrap;html=1;fontSize=30;strokeColor=none;fillColor=#97D077;" parent="1" vertex="1">
          <mxGeometry x="160" y="159.5" width="235" height="45.5" as="geometry" />
        </mxCell>
        <mxCell id="FNROunYRmoEd2MTFt1e7-3" value="" style="rounded=0;whiteSpace=wrap;html=1;fontSize=30;fillColor=#FF6666;strokeColor=none;" parent="1" vertex="1">
          <mxGeometry x="395" y="160" width="90" height="45" as="geometry" />
        </mxCell>
        <mxCell id="FNROunYRmoEd2MTFt1e7-1" value="&lt;font&gt;SwaraJombang&lt;/font&gt;&lt;font&gt;.com&lt;/font&gt;" style="text;html=1;strokeColor=none;fillColor=none;align=center;verticalAlign=middle;whiteSpace=wrap;rounded=0;fontSize=30;fontColor=#FFFFFF;" parent="1" vertex="1">
          <mxGeometry x="155" y="159.5" width="330" height="42.5" as="geometry" />
        </mxCell>
        <mxCell id="FNROunYRmoEd2MTFt1e7-6" value="&lt;font color=&quot;#66b2ff&quot;&gt;SwaraJombang&lt;/font&gt;&lt;font color=&quot;#ff0000&quot;&gt;.com&lt;/font&gt;" style="text;html=1;strokeColor=none;fillColor=none;align=center;verticalAlign=middle;whiteSpace=wrap;rounded=0;fontSize=30;" parent="1" vertex="1">
          <mxGeometry x="160" y="280" width="330" height="40" as="geometry" />
        </mxCell>
        <mxCell id="FNROunYRmoEd2MTFt1e7-7" value="&lt;font color=&quot;#66b2ff&quot;&gt;SwaraJombang&lt;/font&gt;&lt;font color=&quot;#ff0000&quot;&gt;.com&lt;/font&gt;" style="text;html=1;strokeColor=none;fillColor=none;align=center;verticalAlign=middle;whiteSpace=wrap;rounded=0;fontSize=30;fontFamily=Petit Formal Script;fontSource=https%3A%2F%2Ffonts.googleapis.com%2Fcss%3Ffamily%3DPetit%2BFormal%2BScript;fontStyle=0" parent="1" vertex="1">
          <mxGeometry x="160" y="320" width="330" height="40" as="geometry" />
        </mxCell>
        <mxCell id="FNROunYRmoEd2MTFt1e7-8" value="&lt;font color=&quot;#66b2ff&quot;&gt;SwaraJombang&lt;/font&gt;&lt;font color=&quot;#ff0000&quot;&gt;.com&lt;/font&gt;" style="text;html=1;strokeColor=none;fillColor=none;align=center;verticalAlign=middle;whiteSpace=wrap;rounded=0;fontSize=30;fontFamily=Montagu Slab;fontSource=https%3A%2F%2Ffonts.googleapis.com%2Fcss%3Ffamily%3DMontagu%2BSlab;fontStyle=0" parent="1" vertex="1">
          <mxGeometry x="155" y="360" width="330" height="40" as="geometry" />
        </mxCell>
        <mxCell id="FNROunYRmoEd2MTFt1e7-9" value="&lt;font color=&quot;#66b2ff&quot; style=&quot;font-size: 50px;&quot;&gt;SwaraJombang&lt;/font&gt;&lt;font color=&quot;#ff0000&quot; style=&quot;font-size: 50px;&quot;&gt;.com&lt;/font&gt;" style="text;html=1;strokeColor=none;fillColor=none;align=center;verticalAlign=middle;whiteSpace=wrap;rounded=0;fontSize=50;fontFamily=Grand Hotel;fontSource=https%3A%2F%2Ffonts.googleapis.com%2Fcss%3Ffamily%3DGrand%2BHotel;fontStyle=0" parent="1" vertex="1">
          <mxGeometry x="140" y="680" width="330" height="40" as="geometry" />
        </mxCell>
        <mxCell id="FNROunYRmoEd2MTFt1e7-10" value="&lt;font color=&quot;#66b2ff&quot;&gt;SwaraJombang&lt;/font&gt;&lt;font color=&quot;#ff0000&quot;&gt;.com&lt;/font&gt;" style="text;html=1;strokeColor=none;fillColor=none;align=center;verticalAlign=middle;whiteSpace=wrap;rounded=0;fontSize=30;fontFamily=Sofia;fontSource=https%3A%2F%2Ffonts.googleapis.com%2Fcss%3Ffamily%3DSofia;fontStyle=0" parent="1" vertex="1">
          <mxGeometry x="160" y="560" width="330" height="40" as="geometry" />
        </mxCell>
        <mxCell id="FNROunYRmoEd2MTFt1e7-11" value="&lt;font color=&quot;#66b2ff&quot;&gt;SwaraJombang&lt;/font&gt;&lt;font color=&quot;#ff0000&quot;&gt;.com&lt;/font&gt;" style="text;html=1;strokeColor=none;fillColor=none;align=center;verticalAlign=middle;whiteSpace=wrap;rounded=0;fontSize=30;fontFamily=Montserrat;fontSource=https%3A%2F%2Ffonts.googleapis.com%2Fcss%3Ffamily%3DMontserrat;fontStyle=0" parent="1" vertex="1">
          <mxGeometry x="180" y="420" width="330" height="40" as="geometry" />
        </mxCell>
        <mxCell id="FNROunYRmoEd2MTFt1e7-14" value="Text" style="text;html=1;strokeColor=none;fillColor=none;align=center;verticalAlign=middle;whiteSpace=wrap;rounded=0;fontFamily=Noto Sans;fontSize=30;fontColor=#66B2FF;fontSource=https%3A%2F%2Ffonts.googleapis.com%2Fcss%3Ffamily%3DNoto%2BSans;" parent="1" vertex="1">
          <mxGeometry x="700" y="450" width="40" height="20" as="geometry" />
        </mxCell>
        <mxCell id="FNROunYRmoEd2MTFt1e7-17" value="" style="shape=image;verticalLabelPosition=bottom;labelBackgroundColor=#ffffff;verticalAlign=top;aspect=fixed;imageAspect=0;image=data:image/svg+xml,PHN2ZyB4bWxucz0iaHR0cDovL3d3dy53My5vcmcvMjAwMC9zdmciIHhtbG5zOnhsaW5rPSJodHRwOi8vd3d3LnczLm9yZy8xOTk5L3hsaW5rIiB2ZXJzaW9uPSIxLjEiIGlkPSJDYXBhXzEiIHg9IjBweCIgeT0iMHB4IiB2aWV3Qm94PSIwIDAgMzk4LjY2OCAzOTguNjY4IiBzdHlsZT0iZW5hYmxlLWJhY2tncm91bmQ6bmV3IDAgMCAzOTguNjY4IDM5OC42Njg7IiB4bWw6c3BhY2U9InByZXNlcnZlIj4mI3hhOzxnPiYjeGE7CTxnPiYjeGE7CQk8cGF0aCBzdHlsZT0iZmlsbDpub25lOyIgZD0iTTk4LjEwNywyNzUuNDk4Yy0xMy43ODksMC0yNS4wMDYsMTEuMjY0LTI1LjAwNiwyNS4xMDdjMCwxMy43NzcsMTEuMjE3LDI0Ljk4NiwyNS4wMDYsMjQuOTg2ICAgIGMxMy44MzQsMCwyNS4wOS0xMS4yMDksMjUuMDktMjQuOTg2QzEyMy4xOTcsMjg2Ljc2MiwxMTEuOTQxLDI3NS40OTgsOTguMTA3LDI3NS40OTh6Ii8+JiN4YTsJCTxwYXRoIHN0eWxlPSJmaWxsOm5vbmU7IiBkPSJNMzYwLjA1NywyNEgzOC42MTNDMzAuNTU1LDI0LDI0LDMwLjU1NywyNCwzOC42MTN2MzIxLjQ0M2MwLDguMDU3LDYuNTU1LDE0LjYxMSwxNC42MTMsMTQuNjExICAgIGgzMjEuNDQzYzguMDU3LDAsMTQuNjExLTYuNTU1LDE0LjYxMS0xNC42MTFWMzguNjEzQzM3NC42NjgsMzAuNTU3LDM2OC4xMTMsMjQsMzYwLjA1NywyNHogTTk4LjEwNywzNDkuNTkyICAgIGMtMjcuMDIxLDAtNDkuMDA2LTIxLjk3NS00OS4wMDYtNDguOTg2YzAtMjcuMDc4LDIxLjk4NC00OS4xMDcsNDkuMDA2LTQ5LjEwN2MyNy4wNjgsMCw0OS4wOSwyMi4wMjksNDkuMDksNDkuMTA3ICAgIEMxNDcuMTk3LDMyNy42MTcsMTI1LjE3NiwzNDkuNTkyLDk4LjEwNywzNDkuNTkyeiBNMjQyLjcxNSwzNDcuNTE2YzAsMC0wLjAwOCwwLjAwMi0wLjAxNiwwaC00OC43MjkgICAgYy02LjU0MSwwLTExLjg3Ny01LjIzOC0xMS45OTgtMTEuNzc3Yy0wLjU4NC0zMS42MjUtMTMuMTY0LTYxLjMxNi0zNS40MjQtODMuNjA0Yy0yMi4yNzUtMjIuMzM4LTUxLjg0Ni0zNC45NTMtODMuMjctMzUuNTI3ICAgIGMtNi41NDEtMC4xMTktMTEuNzgxLTUuNDU3LTExLjc4MS0xMS45OTh2LTQ4LjU4MmMwLTMuMjExLDEuMjg3LTYuMjg3LDMuNTcyLTguNTQzYzIuMjQ4LTIuMjE3LDUuMjc1LTMuNDU3LDguNDI4LTMuNDU3ICAgIGMwLjA1NSwwLDAuMTA3LDAsMC4xNjIsMGM1MC42NTQsMC42ODYsOTguMzM4LDIwLjg4MywxMzQuMjcxLDU2Ljg3M2MzNS43NTgsMzUuODE0LDU1Ljg5Niw4My4yODEsNTYuNzU2LDEzMy43MzIgICAgYzAuMDIxLDAuMjkxLDAuMDMxLDAuNTg2LDAuMDMxLDAuODgzQzI1NC43MTksMzQyLjE0MywyNDkuMzQ4LDM0Ny41MTYsMjQyLjcxNSwzNDcuNTE2eiBNMzM3LjU4MiwzNDcuNTE2ICAgIGMwLDAtMC4wMDgsMC4wMDItMC4wMTYsMGgtNDguNjQ4Yy02LjU3OCwwLTExLjkzLTUuMjk1LTEyLTExLjg3MWMtMS4yNTQtMTE2LjczOC05Ny4wMDgtMjEyLjc0LTIxMy40NTEtMjE0LjAwMiAgICBjLTYuNTc2LTAuMDcyLTExLjg3MS01LjQyNC0xMS44NzEtMTJWNjEuMDc4YzAtMy4yMDEsMS4yNzktNi4yNjksMy41NTMtOC41MjFjMi4yNzMtMi4yNTQsNS4zNjctMy41MTIsOC41NTUtMy40NzcgICAgYzc1Ljk1MSwwLjY4LDE0Ny40NDEsMzAuNzY4LDIwMS4zMDMsODQuNzIzYzUzLjY4OSw1My43NzksODMuNjk5LDEyNS4wOTYsODQuNTUzLDIwMC44OTFjMC4wMiwwLjI3MiwwLjAyOSwwLjU0NywwLjAyOSwwLjgyMiAgICBDMzQ5LjU4OCwzNDIuMTQzLDM0NC4yMTUsMzQ3LjUxNiwzMzcuNTgyLDM0Ny41MTZ6Ii8+JiN4YTsJCTxwYXRoIHN0eWxlPSJmaWxsOiMzRDY4ODk7IiBkPSJNOTguMTA3LDI1MS40OThjLTI3LjAyMSwwLTQ5LjAwNiwyMi4wMjktNDkuMDA2LDQ5LjEwN2MwLDI3LjAxMiwyMS45ODQsNDguOTg2LDQ5LjAwNiw0OC45ODYgICAgYzI3LjA2OCwwLDQ5LjA5LTIxLjk3NSw0OS4wOS00OC45ODZDMTQ3LjE5NywyNzMuNTI3LDEyNS4xNzYsMjUxLjQ5OCw5OC4xMDcsMjUxLjQ5OHogTTk4LjEwNywzMjUuNTkyICAgIGMtMTMuNzg5LDAtMjUuMDA2LTExLjIwOS0yNS4wMDYtMjQuOTg2YzAtMTMuODQ0LDExLjIxNy0yNS4xMDcsMjUuMDA2LTI1LjEwN2MxMy44MzQsMCwyNS4wOSwxMS4yNjQsMjUuMDksMjUuMTA3ICAgIEMxMjMuMTk3LDMxNC4zODMsMTExLjk0MSwzMjUuNTkyLDk4LjEwNywzMjUuNTkyeiIvPiYjeGE7CQk8cGF0aCBzdHlsZT0iZmlsbDojNzNEMEY0OyIgZD0iTTc1LjQ5OCwxNjguNjMzdjI0LjY2OGMzMy4yNDQsMy4zMDEsNjQuMTUsMTcuOTI2LDg4LjAzNyw0MS44ODEgICAgYzIzLjg3OSwyMy45MDYsMzguNDU5LDU0LjkyMiw0MS43NDYsODguMzM0aDI0LjgxNkMyMjMuMDY2LDI0MS44OTMsMTU2Ljk4NiwxNzUuNjg5LDc1LjQ5OCwxNjguNjMzeiIvPiYjeGE7CQk8cGF0aCBzdHlsZT0iZmlsbDojM0Q2ODg5OyIgZD0iTTE5Ny45MzIsMjAwLjljLTM1LjkzNC0zNS45OS04My42MTctNTYuMTg4LTEzNC4yNzEtNTYuODczYy0wLjA1NSwwLTAuMTA3LDAtMC4xNjIsMCAgICBjLTMuMTUyLDAtNi4xOCwxLjI0LTguNDI4LDMuNDU3Yy0yLjI4NSwyLjI1Ni0zLjU3Miw1LjMzMi0zLjU3Miw4LjU0M3Y0OC41ODJjMCw2LjU0MSw1LjI0LDExLjg3OSwxMS43ODEsMTEuOTk4ICAgIGMzMS40MjQsMC41NzQsNjAuOTk0LDEzLjE4OSw4My4yNywzNS41MjdjMjIuMjYsMjIuMjg3LDM0Ljg0LDUxLjk3OSwzNS40MjQsODMuNjA0YzAuMTIxLDYuNTM5LDUuNDU3LDExLjc3NywxMS45OTgsMTEuNzc3ICAgIGg0OC43MjljMC4wMDgsMC4wMDIsMC4wMTYsMCwwLjAxNiwwYzYuNjMzLDAsMTIuMDA0LTUuMzczLDEyLjAwNC0xMmMwLTAuMjk3LTAuMDEtMC41OTItMC4wMzEtMC44ODMgICAgQzI1My44MjgsMjg0LjE4MiwyMzMuNjg5LDIzNi43MTUsMTk3LjkzMiwyMDAuOXogTTIwNS4yODEsMzIzLjUxNmMtMy4yODctMzMuNDEyLTE3Ljg2Ny02NC40MjgtNDEuNzQ2LTg4LjMzNCAgICBjLTIzLjg4Ny0yMy45NTUtNTQuNzkzLTM4LjU4LTg4LjAzNy00MS44ODF2LTI0LjY2OGM4MS40ODgsNy4wNTcsMTQ3LjU2OCw3My4yNiwxNTQuNiwxNTQuODgzSDIwNS4yODF6Ii8+JiN4YTsJCTxwYXRoIHN0eWxlPSJmaWxsOiM3M0QwRjQ7IiBkPSJNNzUuNTk2LDczLjQ2NXYyNC41OThjNTguNTE2LDMuNTAyLDExMy4xODgsMjguMTIxLDE1NS4wMjksNzAuMDY0ICAgIGM0MS44MzgsNDEuOTQzLDY2LjM5MSw5Ni43NDIsNjkuODc3LDE1NS4zODloMjQuNjgyQzMxNy44NTIsMTg5LjU5LDIwOS4yOTMsODAuODM0LDc1LjU5Niw3My40NjV6Ii8+JiN4YTsJCTxwYXRoIHN0eWxlPSJmaWxsOiMzRDY4ODk7IiBkPSJNMjY1LjAwNiwxMzMuODAzQzIxMS4xNDUsNzkuODQ4LDEzOS42NTQsNDkuNzYsNjMuNzAzLDQ5LjA4Yy0zLjE4OC0wLjAzNS02LjI4MSwxLjIyMy04LjU1NSwzLjQ3NyAgICBjLTIuMjczLDIuMjUyLTMuNTUzLDUuMzItMy41NTMsOC41MjF2NDguNTY1YzAsNi41NzYsNS4yOTUsMTEuOTI4LDExLjg3MSwxMmMxMTYuNDQzLDEuMjYyLDIxMi4xOTcsOTcuMjY0LDIxMy40NTEsMjE0LjAwMiAgICBjMC4wNyw2LjU3Niw1LjQyMiwxMS44NzEsMTIsMTEuODcxaDQ4LjY0OGMwLjAwOCwwLjAwMiwwLjAxNiwwLDAuMDE2LDBjNi42MzMsMCwxMi4wMDYtNS4zNzMsMTIuMDA2LTEyICAgIGMwLTAuMjc1LTAuMDEtMC41NTEtMC4wMjktMC44MjJDMzQ4LjcwNSwyNTguODk4LDMxOC42OTUsMTg3LjU4MiwyNjUuMDA2LDEzMy44MDN6IE0zMDAuNTAyLDMyMy41MTYgICAgYy0zLjQ4Ni01OC42NDYtMjguMDM5LTExMy40NDUtNjkuODc3LTE1NS4zODljLTQxLjg0Mi00MS45NDMtOTYuNTE0LTY2LjU2My0xNTUuMDI5LTcwLjA2NFY3My40NjUgICAgYzEzMy42OTcsNy4zNjksMjQyLjI1NiwxMTYuMTI1LDI0OS41ODgsMjUwLjA1MUgzMDAuNTAyeiIvPiYjeGE7CQk8cGF0aCBzdHlsZT0iZmlsbDojM0Q2ODg5OyIgZD0iTTM2MC4wNTcsMEgzOC42MTNDMTcuMzIyLDAsMCwxNy4zMjIsMCwzOC42MTN2MzIxLjQ0M2MwLDIxLjI5MSwxNy4zMjIsMzguNjExLDM4LjYxMywzOC42MTEgICAgaDMyMS40NDNjMjEuMjkxLDAsMzguNjExLTE3LjMyLDM4LjYxMS0zOC42MTFWMzguNjEzQzM5OC42NjgsMTcuMzIyLDM4MS4zNDgsMCwzNjAuMDU3LDB6IE0zNzQuNjY4LDM2MC4wNTcgICAgYzAsOC4wNTctNi41NTUsMTQuNjExLTE0LjYxMSwxNC42MTFIMzguNjEzYy04LjA1OSwwLTE0LjYxMy02LjU1NS0xNC42MTMtMTQuNjExVjM4LjYxM0MyNCwzMC41NTcsMzAuNTU1LDI0LDM4LjYxMywyNGgzMjEuNDQzICAgIGM4LjA1NywwLDE0LjYxMSw2LjU1NywxNC42MTEsMTQuNjEzVjM2MC4wNTd6Ii8+JiN4YTsJPC9nPiYjeGE7PC9nPiYjeGE7PGc+JiN4YTs8L2c+JiN4YTs8Zz4mI3hhOzwvZz4mI3hhOzxnPiYjeGE7PC9nPiYjeGE7PGc+JiN4YTs8L2c+JiN4YTs8Zz4mI3hhOzwvZz4mI3hhOzxnPiYjeGE7PC9nPiYjeGE7PGc+JiN4YTs8L2c+JiN4YTs8Zz4mI3hhOzwvZz4mI3hhOzxnPiYjeGE7PC9nPiYjeGE7PGc+JiN4YTs8L2c+JiN4YTs8Zz4mI3hhOzwvZz4mI3hhOzxnPiYjeGE7PC9nPiYjeGE7PGc+JiN4YTs8L2c+JiN4YTs8Zz4mI3hhOzwvZz4mI3hhOzxnPiYjeGE7PC9nPiYjeGE7PC9zdmc+;rotation=-60;" parent="1" vertex="1">
          <mxGeometry x="140" y="570" width="49" height="49" as="geometry" />
        </mxCell>
        <mxCell id="FNROunYRmoEd2MTFt1e7-18" value="" style="shape=image;verticalLabelPosition=bottom;labelBackgroundColor=#ffffff;verticalAlign=top;aspect=fixed;imageAspect=0;image=data:image/svg+xml,PHN2ZyB4bWxucz0iaHR0cDovL3d3dy53My5vcmcvMjAwMC9zdmciIHhtbG5zOnhsaW5rPSJodHRwOi8vd3d3LnczLm9yZy8xOTk5L3hsaW5rIiB2ZXJzaW9uPSIxLjEiIGlkPSJDYXBhXzEiIHg9IjBweCIgeT0iMHB4IiB2aWV3Qm94PSIwIDAgMzk4LjY2OCAzOTguNjY4IiBzdHlsZT0iZW5hYmxlLWJhY2tncm91bmQ6bmV3IDAgMCAzOTguNjY4IDM5OC42Njg7IiB4bWw6c3BhY2U9InByZXNlcnZlIj4mI3hhOzxnPiYjeGE7CTxnPiYjeGE7CQk8cGF0aCBzdHlsZT0iZmlsbDpub25lOyIgZD0iTTk4LjEwNywyNzUuNDk4Yy0xMy43ODksMC0yNS4wMDYsMTEuMjY0LTI1LjAwNiwyNS4xMDdjMCwxMy43NzcsMTEuMjE3LDI0Ljk4NiwyNS4wMDYsMjQuOTg2ICAgIGMxMy44MzQsMCwyNS4wOS0xMS4yMDksMjUuMDktMjQuOTg2QzEyMy4xOTcsMjg2Ljc2MiwxMTEuOTQxLDI3NS40OTgsOTguMTA3LDI3NS40OTh6Ii8+JiN4YTsJCTxwYXRoIHN0eWxlPSJmaWxsOm5vbmU7IiBkPSJNMzYwLjA1NywyNEgzOC42MTNDMzAuNTU1LDI0LDI0LDMwLjU1NywyNCwzOC42MTN2MzIxLjQ0M2MwLDguMDU3LDYuNTU1LDE0LjYxMSwxNC42MTMsMTQuNjExICAgIGgzMjEuNDQzYzguMDU3LDAsMTQuNjExLTYuNTU1LDE0LjYxMS0xNC42MTFWMzguNjEzQzM3NC42NjgsMzAuNTU3LDM2OC4xMTMsMjQsMzYwLjA1NywyNHogTTk4LjEwNywzNDkuNTkyICAgIGMtMjcuMDIxLDAtNDkuMDA2LTIxLjk3NS00OS4wMDYtNDguOTg2YzAtMjcuMDc4LDIxLjk4NC00OS4xMDcsNDkuMDA2LTQ5LjEwN2MyNy4wNjgsMCw0OS4wOSwyMi4wMjksNDkuMDksNDkuMTA3ICAgIEMxNDcuMTk3LDMyNy42MTcsMTI1LjE3NiwzNDkuNTkyLDk4LjEwNywzNDkuNTkyeiBNMjQyLjcxNSwzNDcuNTE2YzAsMC0wLjAwOCwwLjAwMi0wLjAxNiwwaC00OC43MjkgICAgYy02LjU0MSwwLTExLjg3Ny01LjIzOC0xMS45OTgtMTEuNzc3Yy0wLjU4NC0zMS42MjUtMTMuMTY0LTYxLjMxNi0zNS40MjQtODMuNjA0Yy0yMi4yNzUtMjIuMzM4LTUxLjg0Ni0zNC45NTMtODMuMjctMzUuNTI3ICAgIGMtNi41NDEtMC4xMTktMTEuNzgxLTUuNDU3LTExLjc4MS0xMS45OTh2LTQ4LjU4MmMwLTMuMjExLDEuMjg3LTYuMjg3LDMuNTcyLTguNTQzYzIuMjQ4LTIuMjE3LDUuMjc1LTMuNDU3LDguNDI4LTMuNDU3ICAgIGMwLjA1NSwwLDAuMTA3LDAsMC4xNjIsMGM1MC42NTQsMC42ODYsOTguMzM4LDIwLjg4MywxMzQuMjcxLDU2Ljg3M2MzNS43NTgsMzUuODE0LDU1Ljg5Niw4My4yODEsNTYuNzU2LDEzMy43MzIgICAgYzAuMDIxLDAuMjkxLDAuMDMxLDAuNTg2LDAuMDMxLDAuODgzQzI1NC43MTksMzQyLjE0MywyNDkuMzQ4LDM0Ny41MTYsMjQyLjcxNSwzNDcuNTE2eiBNMzM3LjU4MiwzNDcuNTE2ICAgIGMwLDAtMC4wMDgsMC4wMDItMC4wMTYsMGgtNDguNjQ4Yy02LjU3OCwwLTExLjkzLTUuMjk1LTEyLTExLjg3MWMtMS4yNTQtMTE2LjczOC05Ny4wMDgtMjEyLjc0LTIxMy40NTEtMjE0LjAwMiAgICBjLTYuNTc2LTAuMDcyLTExLjg3MS01LjQyNC0xMS44NzEtMTJWNjEuMDc4YzAtMy4yMDEsMS4yNzktNi4yNjksMy41NTMtOC41MjFjMi4yNzMtMi4yNTQsNS4zNjctMy41MTIsOC41NTUtMy40NzcgICAgYzc1Ljk1MSwwLjY4LDE0Ny40NDEsMzAuNzY4LDIwMS4zMDMsODQuNzIzYzUzLjY4OSw1My43NzksODMuNjk5LDEyNS4wOTYsODQuNTUzLDIwMC44OTFjMC4wMiwwLjI3MiwwLjAyOSwwLjU0NywwLjAyOSwwLjgyMiAgICBDMzQ5LjU4OCwzNDIuMTQzLDM0NC4yMTUsMzQ3LjUxNiwzMzcuNTgyLDM0Ny41MTZ6Ii8+JiN4YTsJCTxwYXRoIHN0eWxlPSJmaWxsOiMzRDY4ODk7IiBkPSJNOTguMTA3LDI1MS40OThjLTI3LjAyMSwwLTQ5LjAwNiwyMi4wMjktNDkuMDA2LDQ5LjEwN2MwLDI3LjAxMiwyMS45ODQsNDguOTg2LDQ5LjAwNiw0OC45ODYgICAgYzI3LjA2OCwwLDQ5LjA5LTIxLjk3NSw0OS4wOS00OC45ODZDMTQ3LjE5NywyNzMuNTI3LDEyNS4xNzYsMjUxLjQ5OCw5OC4xMDcsMjUxLjQ5OHogTTk4LjEwNywzMjUuNTkyICAgIGMtMTMuNzg5LDAtMjUuMDA2LTExLjIwOS0yNS4wMDYtMjQuOTg2YzAtMTMuODQ0LDExLjIxNy0yNS4xMDcsMjUuMDA2LTI1LjEwN2MxMy44MzQsMCwyNS4wOSwxMS4yNjQsMjUuMDksMjUuMTA3ICAgIEMxMjMuMTk3LDMxNC4zODMsMTExLjk0MSwzMjUuNTkyLDk4LjEwNywzMjUuNTkyeiIvPiYjeGE7CQk8cGF0aCBzdHlsZT0iZmlsbDojNzNEMEY0OyIgZD0iTTc1LjQ5OCwxNjguNjMzdjI0LjY2OGMzMy4yNDQsMy4zMDEsNjQuMTUsMTcuOTI2LDg4LjAzNyw0MS44ODEgICAgYzIzLjg3OSwyMy45MDYsMzguNDU5LDU0LjkyMiw0MS43NDYsODguMzM0aDI0LjgxNkMyMjMuMDY2LDI0MS44OTMsMTU2Ljk4NiwxNzUuNjg5LDc1LjQ5OCwxNjguNjMzeiIvPiYjeGE7CQk8cGF0aCBzdHlsZT0iZmlsbDojM0Q2ODg5OyIgZD0iTTE5Ny45MzIsMjAwLjljLTM1LjkzNC0zNS45OS04My42MTctNTYuMTg4LTEzNC4yNzEtNTYuODczYy0wLjA1NSwwLTAuMTA3LDAtMC4xNjIsMCAgICBjLTMuMTUyLDAtNi4xOCwxLjI0LTguNDI4LDMuNDU3Yy0yLjI4NSwyLjI1Ni0zLjU3Miw1LjMzMi0zLjU3Miw4LjU0M3Y0OC41ODJjMCw2LjU0MSw1LjI0LDExLjg3OSwxMS43ODEsMTEuOTk4ICAgIGMzMS40MjQsMC41NzQsNjAuOTk0LDEzLjE4OSw4My4yNywzNS41MjdjMjIuMjYsMjIuMjg3LDM0Ljg0LDUxLjk3OSwzNS40MjQsODMuNjA0YzAuMTIxLDYuNTM5LDUuNDU3LDExLjc3NywxMS45OTgsMTEuNzc3ICAgIGg0OC43MjljMC4wMDgsMC4wMDIsMC4wMTYsMCwwLjAxNiwwYzYuNjMzLDAsMTIuMDA0LTUuMzczLDEyLjAwNC0xMmMwLTAuMjk3LTAuMDEtMC41OTItMC4wMzEtMC44ODMgICAgQzI1My44MjgsMjg0LjE4MiwyMzMuNjg5LDIzNi43MTUsMTk3LjkzMiwyMDAuOXogTTIwNS4yODEsMzIzLjUxNmMtMy4yODctMzMuNDEyLTE3Ljg2Ny02NC40MjgtNDEuNzQ2LTg4LjMzNCAgICBjLTIzLjg4Ny0yMy45NTUtNTQuNzkzLTM4LjU4LTg4LjAzNy00MS44ODF2LTI0LjY2OGM4MS40ODgsNy4wNTcsMTQ3LjU2OCw3My4yNiwxNTQuNiwxNTQuODgzSDIwNS4yODF6Ii8+JiN4YTsJCTxwYXRoIHN0eWxlPSJmaWxsOiM3M0QwRjQ7IiBkPSJNNzUuNTk2LDczLjQ2NXYyNC41OThjNTguNTE2LDMuNTAyLDExMy4xODgsMjguMTIxLDE1NS4wMjksNzAuMDY0ICAgIGM0MS44MzgsNDEuOTQzLDY2LjM5MSw5Ni43NDIsNjkuODc3LDE1NS4zODloMjQuNjgyQzMxNy44NTIsMTg5LjU5LDIwOS4yOTMsODAuODM0LDc1LjU5Niw3My40NjV6Ii8+JiN4YTsJCTxwYXRoIHN0eWxlPSJmaWxsOiMzRDY4ODk7IiBkPSJNMjY1LjAwNiwxMzMuODAzQzIxMS4xNDUsNzkuODQ4LDEzOS42NTQsNDkuNzYsNjMuNzAzLDQ5LjA4Yy0zLjE4OC0wLjAzNS02LjI4MSwxLjIyMy04LjU1NSwzLjQ3NyAgICBjLTIuMjczLDIuMjUyLTMuNTUzLDUuMzItMy41NTMsOC41MjF2NDguNTY1YzAsNi41NzYsNS4yOTUsMTEuOTI4LDExLjg3MSwxMmMxMTYuNDQzLDEuMjYyLDIxMi4xOTcsOTcuMjY0LDIxMy40NTEsMjE0LjAwMiAgICBjMC4wNyw2LjU3Niw1LjQyMiwxMS44NzEsMTIsMTEuODcxaDQ4LjY0OGMwLjAwOCwwLjAwMiwwLjAxNiwwLDAuMDE2LDBjNi42MzMsMCwxMi4wMDYtNS4zNzMsMTIuMDA2LTEyICAgIGMwLTAuMjc1LTAuMDEtMC41NTEtMC4wMjktMC44MjJDMzQ4LjcwNSwyNTguODk4LDMxOC42OTUsMTg3LjU4MiwyNjUuMDA2LDEzMy44MDN6IE0zMDAuNTAyLDMyMy41MTYgICAgYy0zLjQ4Ni01OC42NDYtMjguMDM5LTExMy40NDUtNjkuODc3LTE1NS4zODljLTQxLjg0Mi00MS45NDMtOTYuNTE0LTY2LjU2My0xNTUuMDI5LTcwLjA2NFY3My40NjUgICAgYzEzMy42OTcsNy4zNjksMjQyLjI1NiwxMTYuMTI1LDI0OS41ODgsMjUwLjA1MUgzMDAuNTAyeiIvPiYjeGE7CQk8cGF0aCBzdHlsZT0iZmlsbDojM0Q2ODg5OyIgZD0iTTM2MC4wNTcsMEgzOC42MTNDMTcuMzIyLDAsMCwxNy4zMjIsMCwzOC42MTN2MzIxLjQ0M2MwLDIxLjI5MSwxNy4zMjIsMzguNjExLDM4LjYxMywzOC42MTEgICAgaDMyMS40NDNjMjEuMjkxLDAsMzguNjExLTE3LjMyLDM4LjYxMS0zOC42MTFWMzguNjEzQzM5OC42NjgsMTcuMzIyLDM4MS4zNDgsMCwzNjAuMDU3LDB6IE0zNzQuNjY4LDM2MC4wNTcgICAgYzAsOC4wNTctNi41NTUsMTQuNjExLTE0LjYxMSwxNC42MTFIMzguNjEzYy04LjA1OSwwLTE0LjYxMy02LjU1NS0xNC42MTMtMTQuNjExVjM4LjYxM0MyNCwzMC41NTcsMzAuNTU1LDI0LDM4LjYxMywyNGgzMjEuNDQzICAgIGM4LjA1NywwLDE0LjYxMSw2LjU1NywxNC42MTEsMTQuNjEzVjM2MC4wNTd6Ii8+JiN4YTsJPC9nPiYjeGE7PC9nPiYjeGE7PGc+JiN4YTs8L2c+JiN4YTs8Zz4mI3hhOzwvZz4mI3hhOzxnPiYjeGE7PC9nPiYjeGE7PGc+JiN4YTs8L2c+JiN4YTs8Zz4mI3hhOzwvZz4mI3hhOzxnPiYjeGE7PC9nPiYjeGE7PGc+JiN4YTs8L2c+JiN4YTs8Zz4mI3hhOzwvZz4mI3hhOzxnPiYjeGE7PC9nPiYjeGE7PGc+JiN4YTs8L2c+JiN4YTs8Zz4mI3hhOzwvZz4mI3hhOzxnPiYjeGE7PC9nPiYjeGE7PGc+JiN4YTs8L2c+JiN4YTs8Zz4mI3hhOzwvZz4mI3hhOzxnPiYjeGE7PC9nPiYjeGE7PC9zdmc+;" parent="1" vertex="1">
          <mxGeometry x="-450" y="-200" width="399" height="399" as="geometry" />
        </mxCell>
        <mxCell id="FNROunYRmoEd2MTFt1e7-19" value="" style="shape=image;verticalLabelPosition=bottom;labelBackgroundColor=#ffffff;verticalAlign=top;aspect=fixed;imageAspect=0;image=data:image/svg+xml,PHN2ZyB4bWxucz0iaHR0cDovL3d3dy53My5vcmcvMjAwMC9zdmciIHhtbG5zOnhsaW5rPSJodHRwOi8vd3d3LnczLm9yZy8xOTk5L3hsaW5rIiB2ZXJzaW9uPSIxLjEiIGlkPSJDYXBhXzEiIHg9IjBweCIgeT0iMHB4IiB2aWV3Qm94PSIwIDAgMzk4LjY2OCAzOTguNjY4IiBzdHlsZT0iZW5hYmxlLWJhY2tncm91bmQ6bmV3IDAgMCAzOTguNjY4IDM5OC42Njg7IiB4bWw6c3BhY2U9InByZXNlcnZlIj4mI3hhOzxnPiYjeGE7CTxnPiYjeGE7CQk8cGF0aCBzdHlsZT0iZmlsbDpub25lOyIgZD0iTTk4LjEwNywyNzUuNDk4Yy0xMy43ODksMC0yNS4wMDYsMTEuMjY0LTI1LjAwNiwyNS4xMDdjMCwxMy43NzcsMTEuMjE3LDI0Ljk4NiwyNS4wMDYsMjQuOTg2ICAgIGMxMy44MzQsMCwyNS4wOS0xMS4yMDksMjUuMDktMjQuOTg2QzEyMy4xOTcsMjg2Ljc2MiwxMTEuOTQxLDI3NS40OTgsOTguMTA3LDI3NS40OTh6Ii8+JiN4YTsJCTxwYXRoIHN0eWxlPSJmaWxsOm5vbmU7IiBkPSJNMzYwLjA1NywyNEgzOC42MTNDMzAuNTU1LDI0LDI0LDMwLjU1NywyNCwzOC42MTN2MzIxLjQ0M2MwLDguMDU3LDYuNTU1LDE0LjYxMSwxNC42MTMsMTQuNjExICAgIGgzMjEuNDQzYzguMDU3LDAsMTQuNjExLTYuNTU1LDE0LjYxMS0xNC42MTFWMzguNjEzQzM3NC42NjgsMzAuNTU3LDM2OC4xMTMsMjQsMzYwLjA1NywyNHogTTk4LjEwNywzNDkuNTkyICAgIGMtMjcuMDIxLDAtNDkuMDA2LTIxLjk3NS00OS4wMDYtNDguOTg2YzAtMjcuMDc4LDIxLjk4NC00OS4xMDcsNDkuMDA2LTQ5LjEwN2MyNy4wNjgsMCw0OS4wOSwyMi4wMjksNDkuMDksNDkuMTA3ICAgIEMxNDcuMTk3LDMyNy42MTcsMTI1LjE3NiwzNDkuNTkyLDk4LjEwNywzNDkuNTkyeiBNMjQyLjcxNSwzNDcuNTE2YzAsMC0wLjAwOCwwLjAwMi0wLjAxNiwwaC00OC43MjkgICAgYy02LjU0MSwwLTExLjg3Ny01LjIzOC0xMS45OTgtMTEuNzc3Yy0wLjU4NC0zMS42MjUtMTMuMTY0LTYxLjMxNi0zNS40MjQtODMuNjA0Yy0yMi4yNzUtMjIuMzM4LTUxLjg0Ni0zNC45NTMtODMuMjctMzUuNTI3ICAgIGMtNi41NDEtMC4xMTktMTEuNzgxLTUuNDU3LTExLjc4MS0xMS45OTh2LTQ4LjU4MmMwLTMuMjExLDEuMjg3LTYuMjg3LDMuNTcyLTguNTQzYzIuMjQ4LTIuMjE3LDUuMjc1LTMuNDU3LDguNDI4LTMuNDU3ICAgIGMwLjA1NSwwLDAuMTA3LDAsMC4xNjIsMGM1MC42NTQsMC42ODYsOTguMzM4LDIwLjg4MywxMzQuMjcxLDU2Ljg3M2MzNS43NTgsMzUuODE0LDU1Ljg5Niw4My4yODEsNTYuNzU2LDEzMy43MzIgICAgYzAuMDIxLDAuMjkxLDAuMDMxLDAuNTg2LDAuMDMxLDAuODgzQzI1NC43MTksMzQyLjE0MywyNDkuMzQ4LDM0Ny41MTYsMjQyLjcxNSwzNDcuNTE2eiBNMzM3LjU4MiwzNDcuNTE2ICAgIGMwLDAtMC4wMDgsMC4wMDItMC4wMTYsMGgtNDguNjQ4Yy02LjU3OCwwLTExLjkzLTUuMjk1LTEyLTExLjg3MWMtMS4yNTQtMTE2LjczOC05Ny4wMDgtMjEyLjc0LTIxMy40NTEtMjE0LjAwMiAgICBjLTYuNTc2LTAuMDcyLTExLjg3MS01LjQyNC0xMS44NzEtMTJWNjEuMDc4YzAtMy4yMDEsMS4yNzktNi4yNjksMy41NTMtOC41MjFjMi4yNzMtMi4yNTQsNS4zNjctMy41MTIsOC41NTUtMy40NzcgICAgYzc1Ljk1MSwwLjY4LDE0Ny40NDEsMzAuNzY4LDIwMS4zMDMsODQuNzIzYzUzLjY4OSw1My43NzksODMuNjk5LDEyNS4wOTYsODQuNTUzLDIwMC44OTFjMC4wMiwwLjI3MiwwLjAyOSwwLjU0NywwLjAyOSwwLjgyMiAgICBDMzQ5LjU4OCwzNDIuMTQzLDM0NC4yMTUsMzQ3LjUxNiwzMzcuNTgyLDM0Ny41MTZ6Ii8+JiN4YTsJCTxwYXRoIHN0eWxlPSJmaWxsOiMzRDY4ODk7IiBkPSJNOTguMTA3LDI1MS40OThjLTI3LjAyMSwwLTQ5LjAwNiwyMi4wMjktNDkuMDA2LDQ5LjEwN2MwLDI3LjAxMiwyMS45ODQsNDguOTg2LDQ5LjAwNiw0OC45ODYgICAgYzI3LjA2OCwwLDQ5LjA5LTIxLjk3NSw0OS4wOS00OC45ODZDMTQ3LjE5NywyNzMuNTI3LDEyNS4xNzYsMjUxLjQ5OCw5OC4xMDcsMjUxLjQ5OHogTTk4LjEwNywzMjUuNTkyICAgIGMtMTMuNzg5LDAtMjUuMDA2LTExLjIwOS0yNS4wMDYtMjQuOTg2YzAtMTMuODQ0LDExLjIxNy0yNS4xMDcsMjUuMDA2LTI1LjEwN2MxMy44MzQsMCwyNS4wOSwxMS4yNjQsMjUuMDksMjUuMTA3ICAgIEMxMjMuMTk3LDMxNC4zODMsMTExLjk0MSwzMjUuNTkyLDk4LjEwNywzMjUuNTkyeiIvPiYjeGE7CQk8cGF0aCBzdHlsZT0iZmlsbDojNzNEMEY0OyIgZD0iTTc1LjQ5OCwxNjguNjMzdjI0LjY2OGMzMy4yNDQsMy4zMDEsNjQuMTUsMTcuOTI2LDg4LjAzNyw0MS44ODEgICAgYzIzLjg3OSwyMy45MDYsMzguNDU5LDU0LjkyMiw0MS43NDYsODguMzM0aDI0LjgxNkMyMjMuMDY2LDI0MS44OTMsMTU2Ljk4NiwxNzUuNjg5LDc1LjQ5OCwxNjguNjMzeiIvPiYjeGE7CQk8cGF0aCBzdHlsZT0iZmlsbDojM0Q2ODg5OyIgZD0iTTE5Ny45MzIsMjAwLjljLTM1LjkzNC0zNS45OS04My42MTctNTYuMTg4LTEzNC4yNzEtNTYuODczYy0wLjA1NSwwLTAuMTA3LDAtMC4xNjIsMCAgICBjLTMuMTUyLDAtNi4xOCwxLjI0LTguNDI4LDMuNDU3Yy0yLjI4NSwyLjI1Ni0zLjU3Miw1LjMzMi0zLjU3Miw4LjU0M3Y0OC41ODJjMCw2LjU0MSw1LjI0LDExLjg3OSwxMS43ODEsMTEuOTk4ICAgIGMzMS40MjQsMC41NzQsNjAuOTk0LDEzLjE4OSw4My4yNywzNS41MjdjMjIuMjYsMjIuMjg3LDM0Ljg0LDUxLjk3OSwzNS40MjQsODMuNjA0YzAuMTIxLDYuNTM5LDUuNDU3LDExLjc3NywxMS45OTgsMTEuNzc3ICAgIGg0OC43MjljMC4wMDgsMC4wMDIsMC4wMTYsMCwwLjAxNiwwYzYuNjMzLDAsMTIuMDA0LTUuMzczLDEyLjAwNC0xMmMwLTAuMjk3LTAuMDEtMC41OTItMC4wMzEtMC44ODMgICAgQzI1My44MjgsMjg0LjE4MiwyMzMuNjg5LDIzNi43MTUsMTk3LjkzMiwyMDAuOXogTTIwNS4yODEsMzIzLjUxNmMtMy4yODctMzMuNDEyLTE3Ljg2Ny02NC40MjgtNDEuNzQ2LTg4LjMzNCAgICBjLTIzLjg4Ny0yMy45NTUtNTQuNzkzLTM4LjU4LTg4LjAzNy00MS44ODF2LTI0LjY2OGM4MS40ODgsNy4wNTcsMTQ3LjU2OCw3My4yNiwxNTQuNiwxNTQuODgzSDIwNS4yODF6Ii8+JiN4YTsJCTxwYXRoIHN0eWxlPSJmaWxsOiM3M0QwRjQ7IiBkPSJNNzUuNTk2LDczLjQ2NXYyNC41OThjNTguNTE2LDMuNTAyLDExMy4xODgsMjguMTIxLDE1NS4wMjksNzAuMDY0ICAgIGM0MS44MzgsNDEuOTQzLDY2LjM5MSw5Ni43NDIsNjkuODc3LDE1NS4zODloMjQuNjgyQzMxNy44NTIsMTg5LjU5LDIwOS4yOTMsODAuODM0LDc1LjU5Niw3My40NjV6Ii8+JiN4YTsJCTxwYXRoIHN0eWxlPSJmaWxsOiMzRDY4ODk7IiBkPSJNMjY1LjAwNiwxMzMuODAzQzIxMS4xNDUsNzkuODQ4LDEzOS42NTQsNDkuNzYsNjMuNzAzLDQ5LjA4Yy0zLjE4OC0wLjAzNS02LjI4MSwxLjIyMy04LjU1NSwzLjQ3NyAgICBjLTIuMjczLDIuMjUyLTMuNTUzLDUuMzItMy41NTMsOC41MjF2NDguNTY1YzAsNi41NzYsNS4yOTUsMTEuOTI4LDExLjg3MSwxMmMxMTYuNDQzLDEuMjYyLDIxMi4xOTcsOTcuMjY0LDIxMy40NTEsMjE0LjAwMiAgICBjMC4wNyw2LjU3Niw1LjQyMiwxMS44NzEsMTIsMTEuODcxaDQ4LjY0OGMwLjAwOCwwLjAwMiwwLjAxNiwwLDAuMDE2LDBjNi42MzMsMCwxMi4wMDYtNS4zNzMsMTIuMDA2LTEyICAgIGMwLTAuMjc1LTAuMDEtMC41NTEtMC4wMjktMC44MjJDMzQ4LjcwNSwyNTguODk4LDMxOC42OTUsMTg3LjU4MiwyNjUuMDA2LDEzMy44MDN6IE0zMDAuNTAyLDMyMy41MTYgICAgYy0zLjQ4Ni01OC42NDYtMjguMDM5LTExMy40NDUtNjkuODc3LTE1NS4zODljLTQxLjg0Mi00MS45NDMtOTYuNTE0LTY2LjU2My0xNTUuMDI5LTcwLjA2NFY3My40NjUgICAgYzEzMy42OTcsNy4zNjksMjQyLjI1NiwxMTYuMTI1LDI0OS41ODgsMjUwLjA1MUgzMDAuNTAyeiIvPiYjeGE7CQk8cGF0aCBzdHlsZT0iZmlsbDojM0Q2ODg5OyIgZD0iTTM2MC4wNTcsMEgzOC42MTNDMTcuMzIyLDAsMCwxNy4zMjIsMCwzOC42MTN2MzIxLjQ0M2MwLDIxLjI5MSwxNy4zMjIsMzguNjExLDM4LjYxMywzOC42MTEgICAgaDMyMS40NDNjMjEuMjkxLDAsMzguNjExLTE3LjMyLDM4LjYxMS0zOC42MTFWMzguNjEzQzM5OC42NjgsMTcuMzIyLDM4MS4zNDgsMCwzNjAuMDU3LDB6IE0zNzQuNjY4LDM2MC4wNTcgICAgYzAsOC4wNTctNi41NTUsMTQuNjExLTE0LjYxMSwxNC42MTFIMzguNjEzYy04LjA1OSwwLTE0LjYxMy02LjU1NS0xNC42MTMtMTQuNjExVjM4LjYxM0MyNCwzMC41NTcsMzAuNTU1LDI0LDM4LjYxMywyNGgzMjEuNDQzICAgIGM4LjA1NywwLDE0LjYxMSw2LjU1NywxNC42MTEsMTQuNjEzVjM2MC4wNTd6Ii8+JiN4YTsJPC9nPiYjeGE7PC9nPiYjeGE7PGc+JiN4YTs8L2c+JiN4YTs8Zz4mI3hhOzwvZz4mI3hhOzxnPiYjeGE7PC9nPiYjeGE7PGc+JiN4YTs8L2c+JiN4YTs8Zz4mI3hhOzwvZz4mI3hhOzxnPiYjeGE7PC9nPiYjeGE7PGc+JiN4YTs8L2c+JiN4YTs8Zz4mI3hhOzwvZz4mI3hhOzxnPiYjeGE7PC9nPiYjeGE7PGc+JiN4YTs8L2c+JiN4YTs8Zz4mI3hhOzwvZz4mI3hhOzxnPiYjeGE7PC9nPiYjeGE7PGc+JiN4YTs8L2c+JiN4YTs8Zz4mI3hhOzwvZz4mI3hhOzxnPiYjeGE7PC9nPiYjeGE7PC9zdmc+;" parent="1" vertex="1">
          <mxGeometry x="810" y="-100" width="399" height="399" as="geometry" />
        </mxCell>
        <mxCell id="FNROunYRmoEd2MTFt1e7-20" value="&lt;font style=&quot;font-size: 20px;&quot;&gt;Pembawa Amanat Rakyat&lt;/font&gt;" style="text;html=1;strokeColor=none;fillColor=none;align=center;verticalAlign=middle;whiteSpace=wrap;rounded=0;fontSize=20;fontFamily=Georgia;fontStyle=2;fontColor=#999999;" parent="1" vertex="1">
          <mxGeometry x="170" y="599" width="310" height="20" as="geometry" />
        </mxCell>
        <mxCell id="FNROunYRmoEd2MTFt1e7-22" value="&lt;font style=&quot;font-size: 20px;&quot;&gt;Pembawa Amanat Rakyat&lt;/font&gt;" style="text;html=1;strokeColor=none;fillColor=none;align=center;verticalAlign=middle;whiteSpace=wrap;rounded=0;fontSize=20;fontFamily=Georgia;fontStyle=2;fontColor=#999999;" parent="1" vertex="1">
          <mxGeometry x="150" y="733" width="310" height="20" as="geometry" />
        </mxCell>
        <mxCell id="FNROunYRmoEd2MTFt1e7-24" value="&lt;font color=&quot;#66b2ff&quot;&gt;SwaraJombang&lt;/font&gt;&lt;font color=&quot;#ff0000&quot;&gt;.com&lt;/font&gt;" style="text;html=1;strokeColor=none;fillColor=none;align=center;verticalAlign=middle;whiteSpace=wrap;rounded=0;fontSize=30;fontFamily=Libre Baskerville;fontSource=https%3A%2F%2Ffonts.googleapis.com%2Fcss%3Ffamily%3DLibre%2BBaskerville;fontStyle=1" parent="1" vertex="1">
          <mxGeometry x="600" y="559" width="320" height="40" as="geometry" />
        </mxCell>
        <mxCell id="FNROunYRmoEd2MTFt1e7-25" value="" style="endArrow=none;html=1;fontFamily=Libre Baskerville;fontSource=https%3A%2F%2Ffonts.googleapis.com%2Fcss%3Ffamily%3DLibre%2BBaskerville;fontSize=50;fontColor=#999999;strokeWidth=3;fillColor=#dae8fc;strokeColor=#66B2FF;" parent="1" edge="1">
          <mxGeometry width="50" height="50" relative="1" as="geometry">
            <mxPoint x="600" y="559" as="sourcePoint" />
            <mxPoint x="720" y="559" as="targetPoint" />
          </mxGeometry>
        </mxCell>
        <mxCell id="FNROunYRmoEd2MTFt1e7-30" value="" style="endArrow=none;html=1;fontFamily=Libre Baskerville;fontSource=https%3A%2F%2Ffonts.googleapis.com%2Fcss%3Ffamily%3DLibre%2BBaskerville;fontSize=50;fontColor=#999999;strokeWidth=3;fillColor=#dae8fc;strokeColor=#FF0000;" parent="1" edge="1">
          <mxGeometry width="50" height="50" relative="1" as="geometry">
            <mxPoint x="600" y="605" as="sourcePoint" />
            <mxPoint x="640" y="605" as="targetPoint" />
          </mxGeometry>
        </mxCell>
        <mxCell id="FNROunYRmoEd2MTFt1e7-32" value="" style="endArrow=none;html=1;fontFamily=Libre Baskerville;fontSource=https%3A%2F%2Ffonts.googleapis.com%2Fcss%3Ffamily%3DLibre%2BBaskerville;fontSize=50;fontColor=#999999;strokeWidth=3;fillColor=#dae8fc;strokeColor=#66B2FF;" parent="1" edge="1">
          <mxGeometry width="50" height="50" relative="1" as="geometry">
            <mxPoint x="940" y="430" as="sourcePoint" />
            <mxPoint x="1060" y="430" as="targetPoint" />
          </mxGeometry>
        </mxCell>
        <mxCell id="FNROunYRmoEd2MTFt1e7-33" value="" style="endArrow=none;html=1;fontFamily=Libre Baskerville;fontSource=https%3A%2F%2Ffonts.googleapis.com%2Fcss%3Ffamily%3DLibre%2BBaskerville;fontSize=50;fontColor=#999999;strokeWidth=3;fillColor=#dae8fc;strokeColor=#FF0000;" parent="1" edge="1">
          <mxGeometry width="50" height="50" relative="1" as="geometry">
            <mxPoint x="800" y="560" as="sourcePoint" />
            <mxPoint x="920" y="560" as="targetPoint" />
          </mxGeometry>
        </mxCell>
        <mxCell id="FNROunYRmoEd2MTFt1e7-34" value="&lt;font color=&quot;#66b2ff&quot;&gt;SwaraJombang&lt;/font&gt;&lt;font color=&quot;#ff0000&quot;&gt;.com&lt;/font&gt;" style="text;html=1;strokeColor=none;fillColor=none;align=center;verticalAlign=middle;whiteSpace=wrap;rounded=0;fontSize=30;fontFamily=Lily Script One;fontSource=https%3A%2F%2Ffonts.googleapis.com%2Fcss%3Ffamily%3DLily%2BScript%2BOne;fontStyle=0" parent="1" vertex="1">
          <mxGeometry x="590" y="680" width="330" height="40" as="geometry" />
        </mxCell>
        <mxCell id="FNROunYRmoEd2MTFt1e7-35" value="&lt;font style=&quot;font-size: 20px;&quot;&gt;Pembawa Amanat Rakyat&lt;/font&gt;" style="text;html=1;strokeColor=none;fillColor=none;align=center;verticalAlign=middle;whiteSpace=wrap;rounded=0;fontSize=20;fontFamily=Georgia;fontStyle=2;fontColor=#999999;" parent="1" vertex="1">
          <mxGeometry x="590" y="720" width="310" height="20" as="geometry" />
        </mxCell>
        <mxCell id="FNROunYRmoEd2MTFt1e7-36" value="&lt;font color=&quot;#66b2ff&quot;&gt;SwaraJombang&lt;/font&gt;&lt;font color=&quot;#ff0000&quot;&gt;.com&lt;/font&gt;" style="text;html=1;strokeColor=none;fillColor=none;align=center;verticalAlign=middle;whiteSpace=wrap;rounded=0;fontSize=30;fontFamily=Bree Serif;fontSource=https%3A%2F%2Ffonts.googleapis.com%2Fcss%3Ffamily%3DBree%2BSerif;fontStyle=0" parent="1" vertex="1">
          <mxGeometry x="150" y="800" width="330" height="40" as="geometry" />
        </mxCell>
        <mxCell id="FNROunYRmoEd2MTFt1e7-37" value="&lt;font style=&quot;font-size: 20px;&quot;&gt;Pembawa Amanat Rakyat&lt;/font&gt;" style="text;html=1;strokeColor=none;fillColor=none;align=center;verticalAlign=middle;whiteSpace=wrap;rounded=0;fontSize=20;fontFamily=Georgia;fontStyle=2;fontColor=#999999;" parent="1" vertex="1">
          <mxGeometry x="155" y="840" width="310" height="20" as="geometry" />
        </mxCell>
        <mxCell id="FNROunYRmoEd2MTFt1e7-39" value="&lt;font color=&quot;#66b2ff&quot;&gt;SwaraJombang&lt;/font&gt;&lt;font color=&quot;#ff0000&quot;&gt;.com&lt;/font&gt;" style="text;html=1;strokeColor=none;fillColor=none;align=center;verticalAlign=middle;whiteSpace=wrap;rounded=0;fontSize=30;fontFamily=Amaranth;fontSource=https%3A%2F%2Ffonts.googleapis.com%2Fcss%3Ffamily%3DAmaranth;fontStyle=0" parent="1" vertex="1">
          <mxGeometry x="600" y="800" width="330" height="40" as="geometry" />
        </mxCell>
        <mxCell id="FNROunYRmoEd2MTFt1e7-40" value="&lt;font style=&quot;font-size: 20px;&quot;&gt;Pembawa Amanat Rakyat&lt;/font&gt;" style="text;html=1;strokeColor=none;fillColor=none;align=center;verticalAlign=middle;whiteSpace=wrap;rounded=0;fontSize=20;fontFamily=Verdana;fontStyle=2;fontColor=#999999;" parent="1" vertex="1">
          <mxGeometry x="610" y="840" width="310" height="20" as="geometry" />
        </mxCell>
        <mxCell id="FNROunYRmoEd2MTFt1e7-41" value="&lt;font style=&quot;font-size: 20px;&quot;&gt;Pembawa Amanat Rakyat&lt;/font&gt;" style="text;html=1;strokeColor=none;fillColor=none;align=center;verticalAlign=middle;whiteSpace=wrap;rounded=0;fontSize=20;fontFamily=Georgia;fontStyle=2;fontColor=#999999;" parent="1" vertex="1">
          <mxGeometry x="605" y="593" width="310" height="20" as="geometry" />
        </mxCell>
        <mxCell id="FNROunYRmoEd2MTFt1e7-43" value="" style="endArrow=none;html=1;fontFamily=Libre Baskerville;fontSource=https%3A%2F%2Ffonts.googleapis.com%2Fcss%3Ffamily%3DLibre%2BBaskerville;fontSize=50;fontColor=#999999;strokeWidth=3;fillColor=#dae8fc;strokeColor=#66B2FF;" parent="1" edge="1">
          <mxGeometry width="50" height="50" relative="1" as="geometry">
            <mxPoint x="880" y="605" as="sourcePoint" />
            <mxPoint x="920" y="605" as="targetPoint" />
          </mxGeometry>
        </mxCell>
        <mxCell id="u-5_Vgcw78WqOufS7p_w-1" value="" style="rounded=0;whiteSpace=wrap;html=1;fontFamily=Verdana;fontSize=50;strokeColor=none;" parent="1" vertex="1">
          <mxGeometry x="1120" y="500" width="990" height="565" as="geometry" />
        </mxCell>
        <mxCell id="u-5_Vgcw78WqOufS7p_w-2" value="&lt;font color=&quot;#66b2ff&quot; style=&quot;font-size: 50px&quot;&gt;S&lt;/font&gt;&lt;font color=&quot;#66b2ff&quot; style=&quot;font-size: 35px&quot;&gt;W&lt;/font&gt;&lt;font color=&quot;#66b2ff&quot; style=&quot;font-size: 35px&quot;&gt;ARA&lt;/font&gt;&lt;font color=&quot;#66b2ff&quot; style=&quot;font-size: 50px&quot;&gt;J&lt;/font&gt;&lt;font color=&quot;#66b2ff&quot; style=&quot;font-size: 35px&quot;&gt;OMBANG&lt;/font&gt;&lt;font color=&quot;#ff0000&quot; style=&quot;font-size: 50px&quot;&gt;.com&lt;/font&gt;" style="text;html=1;strokeColor=none;fillColor=none;align=center;verticalAlign=middle;whiteSpace=wrap;rounded=0;fontSize=50;fontFamily=Grand Hotel;fontSource=https%3A%2F%2Ffonts.googleapis.com%2Fcss%3Ffamily%3DGrand%2BHotel;fontStyle=0" parent="1" vertex="1">
          <mxGeometry x="1205" y="640" width="330" height="40" as="geometry" />
        </mxCell>
        <mxCell id="u-5_Vgcw78WqOufS7p_w-3" value="&lt;font color=&quot;#66b2ff&quot;&gt;&lt;span style=&quot;font-size: 29px&quot;&gt;&lt;b&gt;S&lt;/b&gt;w&lt;/span&gt;&lt;font style=&quot;font-size: 20px&quot;&gt;ARA&lt;/font&gt;&lt;span style=&quot;font-size: 29px&quot;&gt;&lt;b&gt;J&lt;/b&gt;&lt;/span&gt;&lt;font style=&quot;font-size: 20px&quot;&gt;OMBANG&lt;/font&gt;&lt;/font&gt;&lt;font color=&quot;#ff0000&quot; style=&quot;font-size: 18px&quot;&gt;.&lt;font style=&quot;font-size: 18px&quot;&gt;COM&lt;/font&gt;&lt;/font&gt;" style="text;html=1;strokeColor=none;fillColor=none;align=center;verticalAlign=middle;whiteSpace=wrap;rounded=0;fontSize=30;fontFamily=Sofia;fontSource=https%3A%2F%2Ffonts.googleapis.com%2Fcss%3Ffamily%3DSofia;fontStyle=0" parent="1" vertex="1">
          <mxGeometry x="1195" y="564" width="330" height="40" as="geometry" />
        </mxCell>
        <mxCell id="u-5_Vgcw78WqOufS7p_w-5" value="&lt;font style=&quot;font-size: 20px;&quot;&gt;Pembawa Amanat Rakyat&lt;/font&gt;" style="text;html=1;strokeColor=none;fillColor=none;align=center;verticalAlign=middle;whiteSpace=wrap;rounded=0;fontSize=20;fontFamily=Times New Roman;fontStyle=2;fontColor=#999999;" parent="1" vertex="1">
          <mxGeometry x="1195" y="599" width="310" height="20" as="geometry" />
        </mxCell>
        <mxCell id="u-5_Vgcw78WqOufS7p_w-6" value="&lt;font style=&quot;font-size: 20px;&quot;&gt;Pembawa Amanat Rakyat&lt;/font&gt;" style="text;html=1;strokeColor=none;fillColor=none;align=center;verticalAlign=middle;whiteSpace=wrap;rounded=0;fontSize=20;fontFamily=Times New Roman;fontStyle=2;fontColor=#999999;" parent="1" vertex="1">
          <mxGeometry x="1205" y="683" width="310" height="20" as="geometry" />
        </mxCell>
        <mxCell id="u-5_Vgcw78WqOufS7p_w-7" value="&lt;font color=&quot;#66b2ff&quot;&gt;SwaraJombang&lt;/font&gt;&lt;font color=&quot;#ff0000&quot;&gt;.com&lt;/font&gt;" style="text;html=1;strokeColor=none;fillColor=none;align=center;verticalAlign=middle;whiteSpace=wrap;rounded=0;fontSize=30;fontFamily=Libre Baskerville;fontSource=https%3A%2F%2Ffonts.googleapis.com%2Fcss%3Ffamily%3DLibre%2BBaskerville;fontStyle=1" parent="1" vertex="1">
          <mxGeometry x="1650" y="559" width="320" height="40" as="geometry" />
        </mxCell>
        <mxCell id="u-5_Vgcw78WqOufS7p_w-8" value="" style="endArrow=none;html=1;fontFamily=Libre Baskerville;fontSource=https%3A%2F%2Ffonts.googleapis.com%2Fcss%3Ffamily%3DLibre%2BBaskerville;fontSize=50;fontColor=#999999;strokeWidth=3;fillColor=#dae8fc;strokeColor=#66B2FF;" parent="1" edge="1">
          <mxGeometry width="50" height="50" relative="1" as="geometry">
            <mxPoint x="1650" y="558.9999999999995" as="sourcePoint" />
            <mxPoint x="1770" y="558.9999999999995" as="targetPoint" />
          </mxGeometry>
        </mxCell>
        <mxCell id="u-5_Vgcw78WqOufS7p_w-9" value="" style="endArrow=none;html=1;fontFamily=Libre Baskerville;fontSource=https%3A%2F%2Ffonts.googleapis.com%2Fcss%3Ffamily%3DLibre%2BBaskerville;fontSize=50;fontColor=#999999;strokeWidth=3;fillColor=#dae8fc;strokeColor=#FF0000;" parent="1" edge="1">
          <mxGeometry width="50" height="50" relative="1" as="geometry">
            <mxPoint x="1650" y="605" as="sourcePoint" />
            <mxPoint x="1690" y="605" as="targetPoint" />
          </mxGeometry>
        </mxCell>
        <mxCell id="u-5_Vgcw78WqOufS7p_w-10" value="" style="endArrow=none;html=1;fontFamily=Libre Baskerville;fontSource=https%3A%2F%2Ffonts.googleapis.com%2Fcss%3Ffamily%3DLibre%2BBaskerville;fontSize=50;fontColor=#999999;strokeWidth=3;fillColor=#dae8fc;strokeColor=#FF0000;" parent="1" edge="1">
          <mxGeometry width="50" height="50" relative="1" as="geometry">
            <mxPoint x="1850" y="560" as="sourcePoint" />
            <mxPoint x="1970" y="560" as="targetPoint" />
          </mxGeometry>
        </mxCell>
        <mxCell id="u-5_Vgcw78WqOufS7p_w-11" value="&lt;font color=&quot;#66b2ff&quot;&gt;&lt;span style=&quot;font-size: 29px&quot;&gt;S&lt;/span&gt;&lt;font style=&quot;font-size: 20px&quot;&gt;W&lt;/font&gt;&lt;font style=&quot;font-size: 20px&quot;&gt;ARA&lt;/font&gt;&lt;span style=&quot;font-size: 29px&quot;&gt;J&lt;/span&gt;&lt;font style=&quot;font-size: 20px&quot;&gt;OMBANG&lt;/font&gt;&lt;/font&gt;&lt;font color=&quot;#ff0000&quot;&gt;.com&lt;/font&gt;" style="text;html=1;strokeColor=none;fillColor=none;align=center;verticalAlign=middle;whiteSpace=wrap;rounded=0;fontSize=30;fontFamily=Lily Script One;fontSource=https%3A%2F%2Ffonts.googleapis.com%2Fcss%3Ffamily%3DLily%2BScript%2BOne;fontStyle=0" parent="1" vertex="1">
          <mxGeometry x="1645" y="630" width="330" height="40" as="geometry" />
        </mxCell>
        <mxCell id="u-5_Vgcw78WqOufS7p_w-12" value="&lt;font style=&quot;font-size: 20px;&quot;&gt;Pembawa Amanat Rakyat&lt;/font&gt;" style="text;html=1;strokeColor=none;fillColor=none;align=center;verticalAlign=middle;whiteSpace=wrap;rounded=0;fontSize=20;fontFamily=Times New Roman;fontStyle=2;fontColor=#999999;" parent="1" vertex="1">
          <mxGeometry x="1645" y="670" width="310" height="20" as="geometry" />
        </mxCell>
        <mxCell id="u-5_Vgcw78WqOufS7p_w-13" value="&lt;font color=&quot;#66b2ff&quot;&gt;&lt;font style=&quot;font-size: 32px&quot;&gt;S&lt;/font&gt;&lt;font style=&quot;font-size: 25px&quot;&gt;WARA&lt;/font&gt;&lt;font style=&quot;font-size: 32px&quot;&gt;J&lt;/font&gt;&lt;font style=&quot;font-size: 25px&quot;&gt;OMBANG&lt;/font&gt;&lt;/font&gt;&lt;font color=&quot;#ff0000&quot;&gt;.com&lt;/font&gt;" style="text;html=1;strokeColor=none;fillColor=none;align=center;verticalAlign=middle;whiteSpace=wrap;rounded=0;fontSize=30;fontFamily=Bree Serif;fontSource=https%3A%2F%2Ffonts.googleapis.com%2Fcss%3Ffamily%3DBree%2BSerif;fontStyle=0" parent="1" vertex="1">
          <mxGeometry x="1205" y="720" width="330" height="40" as="geometry" />
        </mxCell>
        <mxCell id="u-5_Vgcw78WqOufS7p_w-14" value="&lt;font style=&quot;font-size: 20px;&quot;&gt;Pembawa Amanat Rakyat&lt;/font&gt;" style="text;html=1;strokeColor=none;fillColor=none;align=center;verticalAlign=middle;whiteSpace=wrap;rounded=0;fontSize=20;fontFamily=Times New Roman;fontStyle=2;fontColor=#999999;" parent="1" vertex="1">
          <mxGeometry x="1210" y="760" width="310" height="20" as="geometry" />
        </mxCell>
        <mxCell id="u-5_Vgcw78WqOufS7p_w-15" value="&lt;font color=&quot;#66b2ff&quot;&gt;&lt;span style=&quot;font-size: 29px&quot;&gt;S&lt;/span&gt;&lt;font style=&quot;font-size: 25px&quot;&gt;WARA&lt;/font&gt;&lt;span style=&quot;font-size: 29px&quot;&gt;J&lt;/span&gt;&lt;font style=&quot;font-size: 25px&quot;&gt;OMBANG&lt;/font&gt;&lt;/font&gt;&lt;font color=&quot;#ff0000&quot;&gt;.com&lt;/font&gt;" style="text;html=1;strokeColor=none;fillColor=none;align=center;verticalAlign=middle;whiteSpace=wrap;rounded=0;fontSize=30;fontFamily=Amaranth;fontSource=https%3A%2F%2Ffonts.googleapis.com%2Fcss%3Ffamily%3DAmaranth;fontStyle=0" parent="1" vertex="1">
          <mxGeometry x="1655" y="720" width="330" height="40" as="geometry" />
        </mxCell>
        <mxCell id="u-5_Vgcw78WqOufS7p_w-16" value="&lt;font style=&quot;font-size: 20px;&quot;&gt;Pembawa Amanat Rakyat&lt;/font&gt;" style="text;html=1;strokeColor=none;fillColor=none;align=center;verticalAlign=middle;whiteSpace=wrap;rounded=0;fontSize=20;fontFamily=Times New Roman;fontStyle=2;fontColor=#999999;" parent="1" vertex="1">
          <mxGeometry x="1665" y="760" width="310" height="20" as="geometry" />
        </mxCell>
        <mxCell id="u-5_Vgcw78WqOufS7p_w-17" value="&lt;font style=&quot;font-size: 20px;&quot;&gt;Pembawa Amanat Rakyat&lt;/font&gt;" style="text;html=1;strokeColor=none;fillColor=none;align=center;verticalAlign=middle;whiteSpace=wrap;rounded=0;fontSize=20;fontFamily=Times New Roman;fontStyle=2;fontColor=#999999;" parent="1" vertex="1">
          <mxGeometry x="1655" y="593" width="310" height="20" as="geometry" />
        </mxCell>
        <mxCell id="u-5_Vgcw78WqOufS7p_w-18" value="" style="endArrow=none;html=1;fontFamily=Libre Baskerville;fontSource=https%3A%2F%2Ffonts.googleapis.com%2Fcss%3Ffamily%3DLibre%2BBaskerville;fontSize=50;fontColor=#999999;strokeWidth=3;fillColor=#dae8fc;strokeColor=#66B2FF;" parent="1" edge="1">
          <mxGeometry width="50" height="50" relative="1" as="geometry">
            <mxPoint x="1930" y="605" as="sourcePoint" />
            <mxPoint x="1970" y="605" as="targetPoint" />
          </mxGeometry>
        </mxCell>
        <mxCell id="-WQ75_UdBbuUMMkc6OAx-1" style="edgeStyle=orthogonalEdgeStyle;rounded=0;orthogonalLoop=1;jettySize=auto;html=1;exitX=0.5;exitY=0;exitDx=0;exitDy=0;entryX=0.5;entryY=0.5;entryDx=0;entryDy=0;entryPerimeter=0;fontFamily=Roboto Slab;fontSize=25;fontSource=https%3A%2F%2Ffonts.googleapis.com%2Fcss%3Ffamily%3DRoboto%2BSlab;" edge="1" parent="1" source="FNROunYRmoEd2MTFt1e7-14" target="FNROunYRmoEd2MTFt1e7-14">
          <mxGeometry relative="1" as="geometry" />
        </mxCell>
        <mxCell id="-WQ75_UdBbuUMMkc6OAx-3" value="&lt;font color=&quot;#66b2ff&quot;&gt;&lt;span style=&quot;font-size: 29px&quot;&gt;S&lt;/span&gt;&lt;font style=&quot;font-size: 25px&quot;&gt;WARA&lt;/font&gt;&lt;span style=&quot;font-size: 29px&quot;&gt;J&lt;/span&gt;&lt;font style=&quot;font-size: 25px&quot;&gt;OMBANG&lt;/font&gt;&lt;/font&gt;&lt;font color=&quot;#ff0000&quot;&gt;.com&lt;/font&gt;" style="text;html=1;strokeColor=none;fillColor=none;align=center;verticalAlign=middle;whiteSpace=wrap;rounded=0;fontSize=30;fontFamily=Roboto Slab;fontStyle=0;fontSource=https%3A%2F%2Ffonts.googleapis.com%2Fcss%3Ffamily%3DRoboto%2BSlab;" vertex="1" parent="1">
          <mxGeometry x="1200" y="800" width="330" height="40" as="geometry" />
        </mxCell>
        <mxCell id="-WQ75_UdBbuUMMkc6OAx-4" value="&lt;font face=&quot;Kelly Slab&quot; data-font-src=&quot;https://fonts.googleapis.com/css?family=Kelly+Slab&quot;&gt;&lt;font color=&quot;#66b2ff&quot;&gt;&lt;span style=&quot;font-size: 29px&quot;&gt;S&lt;/span&gt;&lt;font style=&quot;font-size: 25px&quot;&gt;WARA&lt;/font&gt;&lt;span style=&quot;font-size: 29px&quot;&gt;J&lt;/span&gt;&lt;font style=&quot;font-size: 25px&quot;&gt;OMBANG&lt;/font&gt;&lt;/font&gt;&lt;font color=&quot;#ff0000&quot;&gt;.com&lt;/font&gt;&lt;/font&gt;" style="text;html=1;strokeColor=none;fillColor=none;align=center;verticalAlign=middle;whiteSpace=wrap;rounded=0;fontSize=30;fontFamily=Roboto Slab;fontStyle=0;fontSource=https%3A%2F%2Ffonts.googleapis.com%2Fcss%3Ffamily%3DRoboto%2BSlab;" vertex="1" parent="1">
          <mxGeometry x="1665" y="800" width="330" height="40" as="geometry" />
        </mxCell>
        <mxCell id="-WQ75_UdBbuUMMkc6OAx-5" value="&lt;font data-font-src=&quot;https://fonts.googleapis.com/css?family=Kelly+Slab&quot;&gt;&lt;font color=&quot;#66b2ff&quot;&gt;&lt;span style=&quot;font-size: 29px&quot;&gt;S&lt;/span&gt;&lt;font style=&quot;font-size: 25px&quot;&gt;WARA&lt;/font&gt;&lt;span style=&quot;font-size: 29px&quot;&gt;J&lt;/span&gt;&lt;font style=&quot;font-size: 25px&quot;&gt;OMBANG&lt;/font&gt;&lt;/font&gt;&lt;font color=&quot;#ff0000&quot;&gt;.com&lt;/font&gt;&lt;/font&gt;" style="text;html=1;strokeColor=none;fillColor=none;align=center;verticalAlign=middle;whiteSpace=wrap;rounded=0;fontSize=30;fontFamily=Kelly Slab;fontStyle=0;fontSource=https%3A%2F%2Ffonts.googleapis.com%2Fcss%3Ffamily%3DKelly%2BSlab;" vertex="1" parent="1">
          <mxGeometry x="1190" y="890" width="330" height="40" as="geometry" />
        </mxCell>
        <mxCell id="-WQ75_UdBbuUMMkc6OAx-6" value="&lt;font data-font-src=&quot;https://fonts.googleapis.com/css?family=Kelly+Slab&quot;&gt;&lt;font color=&quot;#66b2ff&quot;&gt;&lt;span style=&quot;font-size: 29px&quot;&gt;S&lt;/span&gt;&lt;font style=&quot;font-size: 25px&quot;&gt;WARA&lt;/font&gt;&lt;span style=&quot;font-size: 29px&quot;&gt;J&lt;/span&gt;&lt;font style=&quot;font-size: 25px&quot;&gt;OMBANG&lt;/font&gt;&lt;/font&gt;&lt;font color=&quot;#ff0000&quot;&gt;.com&lt;/font&gt;&lt;/font&gt;" style="text;html=1;strokeColor=none;fillColor=none;align=center;verticalAlign=middle;whiteSpace=wrap;rounded=0;fontSize=30;fontFamily=Arbutus Slab;fontStyle=0;fontSource=https%3A%2F%2Ffonts.googleapis.com%2Fcss%3Ffamily%3DArbutus%2BSlab;" vertex="1" parent="1">
          <mxGeometry x="1645" y="880" width="330" height="40" as="geometry" />
        </mxCell>
        <mxCell id="-WQ75_UdBbuUMMkc6OAx-7" value="&lt;font style=&quot;font-size: 20px;&quot;&gt;Pembawa Amanat Rakyat&lt;/font&gt;" style="text;html=1;strokeColor=none;fillColor=none;align=center;verticalAlign=middle;whiteSpace=wrap;rounded=0;fontSize=20;fontFamily=Times New Roman;fontStyle=2;fontColor=#999999;" vertex="1" parent="1">
          <mxGeometry x="1210" y="840" width="310" height="20" as="geometry" />
        </mxCell>
        <mxCell id="-WQ75_UdBbuUMMkc6OAx-8" value="&lt;font style=&quot;font-size: 20px;&quot;&gt;Pembawa Amanat Rakyat&lt;/font&gt;" style="text;html=1;strokeColor=none;fillColor=none;align=center;verticalAlign=middle;whiteSpace=wrap;rounded=0;fontSize=20;fontFamily=Times New Roman;fontStyle=2;fontColor=#999999;" vertex="1" parent="1">
          <mxGeometry x="1660" y="830" width="310" height="20" as="geometry" />
        </mxCell>
        <mxCell id="-WQ75_UdBbuUMMkc6OAx-9" value="&lt;font style=&quot;font-size: 20px;&quot;&gt;Pembawa Amanat Rakyat&lt;/font&gt;" style="text;html=1;strokeColor=none;fillColor=none;align=center;verticalAlign=middle;whiteSpace=wrap;rounded=0;fontSize=20;fontFamily=Times New Roman;fontStyle=2;fontColor=#999999;" vertex="1" parent="1">
          <mxGeometry x="1205" y="930" width="310" height="20" as="geometry" />
        </mxCell>
        <mxCell id="-WQ75_UdBbuUMMkc6OAx-10" value="&lt;font style=&quot;font-size: 20px;&quot;&gt;Pembawa Amanat Rakyat&lt;/font&gt;" style="text;html=1;strokeColor=none;fillColor=none;align=center;verticalAlign=middle;whiteSpace=wrap;rounded=0;fontSize=20;fontFamily=Times New Roman;fontStyle=2;fontColor=#999999;" vertex="1" parent="1">
          <mxGeometry x="1645" y="920" width="310" height="20" as="geometry" />
        </mxCell>
      </root>
    </mxGraphModel>
  </diagram>
</mxfile>
